<?xml version="1.0" encoding="UTF-8" standalone="no"?>
<!DOCTYPE svg PUBLIC "-//W3C//DTD SVG 1.1//EN"
 "http://www.w3.org/Graphics/SVG/1.1/DTD/svg11.dtd">
<!-- Generated by graphviz version 2.36.0 (20140111.2315)
 -->
<!-- Title: controllers_diagram Pages: 1 -->
<svg width="502pt" height="583pt"
 viewBox="0.00 0.00 502.00 583.00" xmlns="http://www.w3.org/2000/svg" xmlns:xlink="http://www.w3.org/1999/xlink">
<g id="graph0" class="graph" transform="scale(1 1) rotate(0) translate(4 579)">
<title>controllers_diagram</title>
<polygon fill="none" stroke="none" points="-4,4 -4,-579 498,-579 498,4 -4,4"/>
<!-- _diagram_info -->
<g id="node1" class="node"><title>_diagram_info</title>
<text text-anchor="start" x="53" y="-258.6" font-family="Times,serif" font-size="13.00">Controllers diagram</text>
<text text-anchor="start" x="53" y="-244.6" font-family="Times,serif" font-size="13.00">Date: Oct 17 2015 &#45; 13:05</text>
<text text-anchor="start" x="53" y="-230.6" font-family="Times,serif" font-size="13.00">Migration version: 20151017141351</text>
<text text-anchor="start" x="53" y="-216.6" font-family="Times,serif" font-size="13.00">Generated by RailRoady 1.3.1</text>
<text text-anchor="start" x="53" y="-202.6" font-family="Times,serif" font-size="13.00">http://railroady.prestonlee.com</text>
</g>
<!-- ApplicationController -->
<g id="node2" class="node"><title>ApplicationController</title>
<path fill="none" stroke="black" d="M12,-75.5C12,-75.5 124,-75.5 124,-75.5 130,-75.5 136,-81.5 136,-87.5 136,-87.5 136,-157.5 136,-157.5 136,-163.5 130,-169.5 124,-169.5 124,-169.5 12,-169.5 12,-169.5 6,-169.5 0,-163.5 0,-157.5 0,-157.5 0,-87.5 0,-87.5 0,-81.5 6,-75.5 12,-75.5"/>
<text text-anchor="middle" x="68" y="-154.3" font-family="Times,serif" font-size="14.00">ApplicationController</text>
<polyline fill="none" stroke="black" points="0,-146.5 136,-146.5 "/>
<polyline fill="none" stroke="black" points="0,-122.5 136,-122.5 "/>
<polyline fill="none" stroke="black" points="0,-98.5 136,-98.5 "/>
<text text-anchor="start" x="8" y="-83.3" font-family="Times,serif" font-size="14.00">_layout</text>
</g>
<!-- TestQuestionsController -->
<g id="node3" class="node"><title>TestQuestionsController</title>
<path fill="none" stroke="black" d="M357,-420.5C357,-420.5 482,-420.5 482,-420.5 488,-420.5 494,-426.5 494,-432.5 494,-432.5 494,-502.5 494,-502.5 494,-508.5 488,-514.5 482,-514.5 482,-514.5 357,-514.5 357,-514.5 351,-514.5 345,-508.5 345,-502.5 345,-502.5 345,-432.5 345,-432.5 345,-426.5 351,-420.5 357,-420.5"/>
<text text-anchor="middle" x="419.5" y="-499.3" font-family="Times,serif" font-size="14.00">TestQuestionsController</text>
<polyline fill="none" stroke="black" points="345,-491.5 494,-491.5 "/>
<polyline fill="none" stroke="black" points="345,-467.5 494,-467.5 "/>
<polyline fill="none" stroke="black" points="345,-443.5 494,-443.5 "/>
<text text-anchor="start" x="353" y="-428.3" font-family="Times,serif" font-size="14.00">_layout</text>
</g>
<!-- StudentClassMapsController -->
<g id="node4" class="node"><title>StudentClassMapsController</title>
<path fill="none" stroke="black" d="M297,-120.5C297,-120.5 446,-120.5 446,-120.5 452,-120.5 458,-126.5 458,-132.5 458,-132.5 458,-202.5 458,-202.5 458,-208.5 452,-214.5 446,-214.5 446,-214.5 297,-214.5 297,-214.5 291,-214.5 285,-208.5 285,-202.5 285,-202.5 285,-132.5 285,-132.5 285,-126.5 291,-120.5 297,-120.5"/>
<text text-anchor="middle" x="371.5" y="-199.3" font-family="Times,serif" font-size="14.00">StudentClassMapsController</text>
<polyline fill="none" stroke="black" points="285,-191.5 458,-191.5 "/>
<polyline fill="none" stroke="black" points="285,-167.5 458,-167.5 "/>
<polyline fill="none" stroke="black" points="285,-143.5 458,-143.5 "/>
<text text-anchor="start" x="293" y="-128.3" font-family="Times,serif" font-size="14.00">_layout</text>
</g>
<!-- ClassTestsController -->
<g id="node5" class="node"><title>ClassTestsController</title>
<path fill="none" stroke="black" d="M177,-0.5C177,-0.5 283,-0.5 283,-0.5 289,-0.5 295,-6.5 295,-12.5 295,-12.5 295,-82.5 295,-82.5 295,-88.5 289,-94.5 283,-94.5 283,-94.5 177,-94.5 177,-94.5 171,-94.5 165,-88.5 165,-82.5 165,-82.5 165,-12.5 165,-12.5 165,-6.5 171,-0.5 177,-0.5"/>
<text text-anchor="middle" x="230" y="-79.3" font-family="Times,serif" font-size="14.00">ClassTestsController</text>
<polyline fill="none" stroke="black" points="165,-71.5 295,-71.5 "/>
<polyline fill="none" stroke="black" points="165,-47.5 295,-47.5 "/>
<polyline fill="none" stroke="black" points="165,-23.5 295,-23.5 "/>
<text text-anchor="start" x="173" y="-8.3" font-family="Times,serif" font-size="14.00">_layout</text>
</g>
<!-- StudentsController -->
<g id="node6" class="node"><title>StudentsController</title>
<path fill="none" stroke="black" d="M207,-480.5C207,-480.5 302,-480.5 302,-480.5 308,-480.5 314,-486.5 314,-492.5 314,-492.5 314,-562.5 314,-562.5 314,-568.5 308,-574.5 302,-574.5 302,-574.5 207,-574.5 207,-574.5 201,-574.5 195,-568.5 195,-562.5 195,-562.5 195,-492.5 195,-492.5 195,-486.5 201,-480.5 207,-480.5"/>
<text text-anchor="middle" x="254.5" y="-559.3" font-family="Times,serif" font-size="14.00">StudentsController</text>
<polyline fill="none" stroke="black" points="195,-551.5 314,-551.5 "/>
<polyline fill="none" stroke="black" points="195,-527.5 314,-527.5 "/>
<polyline fill="none" stroke="black" points="195,-503.5 314,-503.5 "/>
<text text-anchor="start" x="203" y="-488.3" font-family="Times,serif" font-size="14.00">_layout</text>
</g>
<!-- MutipleChoiseAnswersController -->
<g id="node7" class="node"><title>MutipleChoiseAnswersController</title>
<path fill="none" stroke="black" d="M237,-300.5C237,-300.5 413,-300.5 413,-300.5 419,-300.5 425,-306.5 425,-312.5 425,-312.5 425,-382.5 425,-382.5 425,-388.5 419,-394.5 413,-394.5 413,-394.5 237,-394.5 237,-394.5 231,-394.5 225,-388.5 225,-382.5 225,-382.5 225,-312.5 225,-312.5 225,-306.5 231,-300.5 237,-300.5"/>
<text text-anchor="middle" x="325" y="-379.3" font-family="Times,serif" font-size="14.00">MutipleChoiseAnswersController</text>
<polyline fill="none" stroke="black" points="225,-371.5 425,-371.5 "/>
<polyline fill="none" stroke="black" points="225,-347.5 425,-347.5 "/>
<polyline fill="none" stroke="black" points="225,-323.5 425,-323.5 "/>
<text text-anchor="start" x="233" y="-308.3" font-family="Times,serif" font-size="14.00">_layout</text>
</g>
<!-- StudentClassesController -->
<g id="node8" class="node"><title>StudentClassesController</title>
<path fill="none" stroke="black" d="M57,-360.5C57,-360.5 187,-360.5 187,-360.5 193,-360.5 199,-366.5 199,-372.5 199,-372.5 199,-442.5 199,-442.5 199,-448.5 193,-454.5 187,-454.5 187,-454.5 57,-454.5 57,-454.5 51,-454.5 45,-448.5 45,-442.5 45,-442.5 45,-372.5 45,-372.5 45,-366.5 51,-360.5 57,-360.5"/>
<text text-anchor="middle" x="122" y="-439.3" font-family="Times,serif" font-size="14.00">StudentClassesController</text>
<polyline fill="none" stroke="black" points="45,-431.5 199,-431.5 "/>
<polyline fill="none" stroke="black" points="45,-407.5 199,-407.5 "/>
<polyline fill="none" stroke="black" points="45,-383.5 199,-383.5 "/>
<text text-anchor="start" x="53" y="-368.3" font-family="Times,serif" font-size="14.00">_layout</text>
</g>
<!-- InstructorsController -->
<g id="node9" class="node"><title>InstructorsController</title>
<path fill="none" stroke="black" d="M342,-0.5C342,-0.5 448,-0.5 448,-0.5 454,-0.5 460,-6.5 460,-12.5 460,-12.5 460,-82.5 460,-82.5 460,-88.5 454,-94.5 448,-94.5 448,-94.5 342,-94.5 342,-94.5 336,-94.5 330,-88.5 330,-82.5 330,-82.5 330,-12.5 330,-12.5 330,-6.5 336,-0.5 342,-0.5"/>
<text text-anchor="middle" x="395" y="-79.3" font-family="Times,serif" font-size="14.00">InstructorsController</text>
<polyline fill="none" stroke="black" points="330,-71.5 460,-71.5 "/>
<polyline fill="none" stroke="black" points="330,-47.5 460,-47.5 "/>
<polyline fill="none" stroke="black" points="330,-23.5 460,-23.5 "/>
<text text-anchor="start" x="338" y="-8.3" font-family="Times,serif" font-size="14.00">_layout</text>
</g>
</g>
</svg>
