<?xml version="1.0" encoding="UTF-8" standalone="no"?>
<!DOCTYPE svg PUBLIC "-//W3C//DTD SVG 1.1//EN"
 "http://www.w3.org/Graphics/SVG/1.1/DTD/svg11.dtd">
<!-- Generated by graphviz version 2.36.0 (20140111.2315)
 -->
<!-- Title: models_diagram Pages: 1 -->
<svg width="503pt" height="374pt"
 viewBox="0.00 0.00 503.00 374.00" xmlns="http://www.w3.org/2000/svg" xmlns:xlink="http://www.w3.org/1999/xlink">
<g id="graph0" class="graph" transform="scale(1 1) rotate(0) translate(4 370)">
<title>models_diagram</title>
<polygon fill="none" stroke="none" points="-4,4 -4,-370 499,-370 499,4 -4,4"/>
<!-- _diagram_info -->
<g id="node1" class="node"><title>_diagram_info</title>
<text text-anchor="start" x="7" y="-351.6" font-family="Times,serif" font-size="13.00">Models diagram</text>
<text text-anchor="start" x="7" y="-337.6" font-family="Times,serif" font-size="13.00">Date: Oct 17 2015 &#45; 13:04</text>
<text text-anchor="start" x="7" y="-323.6" font-family="Times,serif" font-size="13.00">Migration version: 20151017141351</text>
<text text-anchor="start" x="7" y="-309.6" font-family="Times,serif" font-size="13.00">Generated by RailRoady 1.3.1</text>
<text text-anchor="start" x="7" y="-295.6" font-family="Times,serif" font-size="13.00">http://railroady.prestonlee.com</text>
</g>
<!-- ClassTest -->
<g id="node2" class="node"><title>ClassTest</title>
<ellipse fill="none" stroke="black" cx="405" cy="-162" rx="44.271" ry="18"/>
<text text-anchor="middle" x="405" y="-158.3" font-family="Times,serif" font-size="14.00">ClassTest</text>
</g>
<!-- TestQuestion -->
<g id="node5" class="node"><title>TestQuestion</title>
<ellipse fill="none" stroke="black" cx="405" cy="-90" rx="57.2688" ry="18"/>
<text text-anchor="middle" x="405" y="-86.3" font-family="Times,serif" font-size="14.00">TestQuestion</text>
</g>
<!-- ClassTest&#45;&gt;TestQuestion -->
<g id="edge1" class="edge"><title>ClassTest&#45;&gt;TestQuestion</title>
<path fill="none" stroke="#cb0b61" d="M405,-135.64C405,-130.063 405,-124.132 405,-118.476"/>
<ellipse fill="none" stroke="#cb0b61" cx="405" cy="-139.697" rx="4" ry="4"/>
<polygon fill="#cb0b61" stroke="#cb0b61" points="405,-118.104 409.5,-108.104 405,-113.104 405,-108.104 405,-108.104 405,-108.104 405,-113.104 400.5,-108.104 405,-118.104 405,-118.104"/>
</g>
<!-- Student -->
<g id="node3" class="node"><title>Student</title>
<ellipse fill="none" stroke="black" cx="269" cy="-327" rx="37.5442" ry="18"/>
<text text-anchor="middle" x="269" y="-323.3" font-family="Times,serif" font-size="14.00">Student</text>
</g>
<!-- StudentClassMap -->
<g id="node6" class="node"><title>StudentClassMap</title>
<ellipse fill="none" stroke="black" cx="269" cy="-162" rx="73.1654" ry="18"/>
<text text-anchor="middle" x="269" y="-158.3" font-family="Times,serif" font-size="14.00">StudentClassMap</text>
</g>
<!-- Student&#45;&gt;StudentClassMap -->
<g id="edge2" class="edge"><title>Student&#45;&gt;StudentClassMap</title>
<path fill="none" stroke="#a33b7b" d="M269,-300.52C269,-270.6 269,-221.164 269,-190.427"/>
<ellipse fill="none" stroke="#a33b7b" cx="269" cy="-304.864" rx="4" ry="4"/>
<polygon fill="#a33b7b" stroke="#a33b7b" points="269,-190.397 273.5,-180.397 269,-185.397 269,-180.397 269,-180.397 269,-180.397 269,-185.397 264.5,-180.397 269,-190.397 269,-190.397"/>
</g>
<!-- StudentClass -->
<g id="node8" class="node"><title>StudentClass</title>
<ellipse fill="none" stroke="black" cx="362" cy="-234" rx="56.3173" ry="18"/>
<text text-anchor="middle" x="362" y="-230.3" font-family="Times,serif" font-size="14.00">StudentClass</text>
</g>
<!-- Student&#45;&gt;StudentClass -->
<g id="edge3" class="edge"><title>Student&#45;&gt;StudentClass</title>
<path fill="none" stroke="#01673c" d="M291.934,-303.56C305.855,-289.938 323.606,-272.569 337.758,-258.721"/>
<polygon fill="#01673c" stroke="#01673c" points="291.924,-303.569 281.629,-307.347 288.35,-307.066 284.776,-310.563 284.776,-310.563 284.776,-310.563 288.35,-307.066 287.923,-313.779 291.924,-303.569 291.924,-303.569"/>
<polygon fill="#01673c" stroke="#01673c" points="338.055,-258.43 348.349,-254.653 341.628,-254.934 345.202,-251.437 345.202,-251.437 345.202,-251.437 341.628,-254.934 342.055,-248.22 338.055,-258.43 338.055,-258.43"/>
</g>
<!-- MutipleChoiseAnswer -->
<g id="node4" class="node"><title>MutipleChoiseAnswer</title>
<ellipse fill="none" stroke="black" cx="405" cy="-18" rx="90.4879" ry="18"/>
<text text-anchor="middle" x="405" y="-14.3" font-family="Times,serif" font-size="14.00">MutipleChoiseAnswer</text>
</g>
<!-- TestQuestion&#45;&gt;MutipleChoiseAnswer -->
<g id="edge4" class="edge"><title>TestQuestion&#45;&gt;MutipleChoiseAnswer</title>
<path fill="none" stroke="#62d06a" d="M405,-63.6398C405,-58.0629 405,-52.1319 405,-46.4761"/>
<ellipse fill="none" stroke="#62d06a" cx="405" cy="-67.6966" rx="4" ry="4"/>
<polygon fill="#62d06a" stroke="#62d06a" points="405,-46.1043 409.5,-36.1043 405,-41.1043 405,-36.1043 405,-36.1043 405,-36.1043 405,-41.1043 400.5,-36.1044 405,-46.1043 405,-46.1043"/>
</g>
<!-- Instructor -->
<g id="node7" class="node"><title>Instructor</title>
<ellipse fill="none" stroke="black" cx="370" cy="-327" rx="44.271" ry="18"/>
<text text-anchor="middle" x="370" y="-323.3" font-family="Times,serif" font-size="14.00">Instructor</text>
</g>
<!-- Instructor&#45;&gt;StudentClass -->
<g id="edge5" class="edge"><title>Instructor&#45;&gt;StudentClass</title>
<path fill="none" stroke="#5ecf71" d="M367.778,-300.729C366.723,-288.725 365.46,-274.362 364.385,-262.129"/>
<ellipse fill="none" stroke="#5ecf71" cx="368.145" cy="-304.899" rx="4" ry="4"/>
<polygon fill="#5ecf71" stroke="#5ecf71" points="364.374,-262.001 367.981,-251.646 363.936,-257.02 363.498,-252.04 363.498,-252.04 363.498,-252.04 363.936,-257.02 359.015,-252.434 364.374,-262.001 364.374,-262.001"/>
</g>
<!-- StudentClass&#45;&gt;ClassTest -->
<g id="edge7" class="edge"><title>StudentClass&#45;&gt;ClassTest</title>
<path fill="none" stroke="#d1410b" d="M376.744,-208.998C380.805,-202.387 385.224,-195.194 389.335,-188.502"/>
<ellipse fill="none" stroke="#d1410b" cx="374.503" cy="-212.647" rx="4.00002" ry="4.00002"/>
<polygon fill="#d1410b" stroke="#d1410b" points="389.453,-188.31 398.521,-182.144 392.07,-184.049 394.687,-179.789 394.687,-179.789 394.687,-179.789 392.07,-184.049 390.852,-177.434 389.453,-188.31 389.453,-188.31"/>
</g>
<!-- StudentClass&#45;&gt;StudentClassMap -->
<g id="edge6" class="edge"><title>StudentClass&#45;&gt;StudentClassMap</title>
<path fill="none" stroke="#83c74c" d="M334.292,-212.145C323.063,-203.693 310.076,-193.917 298.656,-185.322"/>
<ellipse fill="none" stroke="#83c74c" cx="337.701" cy="-214.71" rx="4.00002" ry="4.00002"/>
<polygon fill="#83c74c" stroke="#83c74c" points="298.655,-185.321 293.371,-175.712 294.66,-182.314 290.665,-179.307 290.665,-179.307 290.665,-179.307 294.66,-182.314 287.959,-182.902 298.655,-185.321 298.655,-185.321"/>
</g>
</g>
</svg>
