<?xml version="1.0" encoding="UTF-8" standalone="no"?>
<!DOCTYPE svg PUBLIC "-//W3C//DTD SVG 1.1//EN"
 "http://www.w3.org/Graphics/SVG/1.1/DTD/svg11.dtd">
<!-- Generated by graphviz version 2.36.0 (20140111.2315)
 -->
<!-- Title: models_diagram Pages: 1 -->
<svg width="549pt" height="854pt"
 viewBox="0.00 0.00 549.00 854.00" xmlns="http://www.w3.org/2000/svg" xmlns:xlink="http://www.w3.org/1999/xlink">
<g id="graph0" class="graph" transform="scale(1 1) rotate(0) translate(4 850)">
<title>models_diagram</title>
<polygon fill="none" stroke="none" points="-4,4 -4,-850 545,-850 545,4 -4,4"/>
<!-- _diagram_info -->
<g id="node1" class="node"><title>_diagram_info</title>
<text text-anchor="start" x="7" y="-779.6" font-family="Times,serif" font-size="13.00">Models diagram</text>
<text text-anchor="start" x="7" y="-765.6" font-family="Times,serif" font-size="13.00">Date: Oct 17 2015 &#45; 13:04</text>
<text text-anchor="start" x="7" y="-751.6" font-family="Times,serif" font-size="13.00">Migration version: 20151017141351</text>
<text text-anchor="start" x="7" y="-737.6" font-family="Times,serif" font-size="13.00">Generated by RailRoady 1.3.1</text>
<text text-anchor="start" x="7" y="-723.6" font-family="Times,serif" font-size="13.00">http://railroady.prestonlee.com</text>
</g>
<!-- ClassTest -->
<g id="node2" class="node"><title>ClassTest</title>
<path fill="none" stroke="black" d="M402.5,-317C402.5,-317 529.5,-317 529.5,-317 535.5,-317 541.5,-323 541.5,-329 541.5,-329 541.5,-441 541.5,-441 541.5,-447 535.5,-453 529.5,-453 529.5,-453 402.5,-453 402.5,-453 396.5,-453 390.5,-447 390.5,-441 390.5,-441 390.5,-329 390.5,-329 390.5,-323 396.5,-317 402.5,-317"/>
<text text-anchor="middle" x="466" y="-437.8" font-family="Times,serif" font-size="14.00">ClassTest</text>
<polyline fill="none" stroke="black" points="390.5,-430 541.5,-430 "/>
<text text-anchor="start" x="398.5" y="-414.8" font-family="Times,serif" font-size="14.00">id :integer</text>
<text text-anchor="start" x="398.5" y="-399.8" font-family="Times,serif" font-size="14.00">student_class_id :integer</text>
<text text-anchor="start" x="398.5" y="-384.8" font-family="Times,serif" font-size="14.00">name :string</text>
<text text-anchor="start" x="398.5" y="-369.8" font-family="Times,serif" font-size="14.00">position :integer</text>
<text text-anchor="start" x="398.5" y="-354.8" font-family="Times,serif" font-size="14.00">date_of_test :date</text>
<text text-anchor="start" x="398.5" y="-339.8" font-family="Times,serif" font-size="14.00">created_at :datetime</text>
<text text-anchor="start" x="398.5" y="-324.8" font-family="Times,serif" font-size="14.00">updated_at :datetime</text>
</g>
<!-- TestQuestion -->
<g id="node5" class="node"><title>TestQuestion</title>
<path fill="none" stroke="black" d="M412.5,-158.5C412.5,-158.5 519.5,-158.5 519.5,-158.5 525.5,-158.5 531.5,-164.5 531.5,-170.5 531.5,-170.5 531.5,-267.5 531.5,-267.5 531.5,-273.5 525.5,-279.5 519.5,-279.5 519.5,-279.5 412.5,-279.5 412.5,-279.5 406.5,-279.5 400.5,-273.5 400.5,-267.5 400.5,-267.5 400.5,-170.5 400.5,-170.5 400.5,-164.5 406.5,-158.5 412.5,-158.5"/>
<text text-anchor="middle" x="466" y="-264.3" font-family="Times,serif" font-size="14.00">TestQuestion</text>
<polyline fill="none" stroke="black" points="400.5,-256.5 531.5,-256.5 "/>
<text text-anchor="start" x="408.5" y="-241.3" font-family="Times,serif" font-size="14.00">id :integer</text>
<text text-anchor="start" x="408.5" y="-226.3" font-family="Times,serif" font-size="14.00">class_test_id :integer</text>
<text text-anchor="start" x="408.5" y="-211.3" font-family="Times,serif" font-size="14.00">question :text</text>
<text text-anchor="start" x="408.5" y="-196.3" font-family="Times,serif" font-size="14.00">position :string</text>
<text text-anchor="start" x="408.5" y="-181.3" font-family="Times,serif" font-size="14.00">created_at :datetime</text>
<text text-anchor="start" x="408.5" y="-166.3" font-family="Times,serif" font-size="14.00">updated_at :datetime</text>
</g>
<!-- ClassTest&#45;&gt;TestQuestion -->
<g id="edge1" class="edge"><title>ClassTest&#45;&gt;TestQuestion</title>
<path fill="none" stroke="#1f2839" d="M466,-308.699C466,-302.472 466,-296.193 466,-290.007"/>
<ellipse fill="none" stroke="#1f2839" cx="466" cy="-312.822" rx="4" ry="4"/>
<polygon fill="#1f2839" stroke="#1f2839" points="466,-289.711 470.5,-279.711 466,-284.711 466,-279.711 466,-279.711 466,-279.711 466,-284.711 461.5,-279.711 466,-289.711 466,-289.711"/>
</g>
<!-- Student -->
<g id="node3" class="node"><title>Student</title>
<path fill="none" stroke="black" d="M243.5,-664.5C243.5,-664.5 350.5,-664.5 350.5,-664.5 356.5,-664.5 362.5,-670.5 362.5,-676.5 362.5,-676.5 362.5,-833.5 362.5,-833.5 362.5,-839.5 356.5,-845.5 350.5,-845.5 350.5,-845.5 243.5,-845.5 243.5,-845.5 237.5,-845.5 231.5,-839.5 231.5,-833.5 231.5,-833.5 231.5,-676.5 231.5,-676.5 231.5,-670.5 237.5,-664.5 243.5,-664.5"/>
<text text-anchor="middle" x="297" y="-830.3" font-family="Times,serif" font-size="14.00">Student</text>
<polyline fill="none" stroke="black" points="231.5,-822.5 362.5,-822.5 "/>
<text text-anchor="start" x="239.5" y="-807.3" font-family="Times,serif" font-size="14.00">id :integer</text>
<text text-anchor="start" x="239.5" y="-792.3" font-family="Times,serif" font-size="14.00">name :string</text>
<text text-anchor="start" x="239.5" y="-777.3" font-family="Times,serif" font-size="14.00">dob :date</text>
<text text-anchor="start" x="239.5" y="-762.3" font-family="Times,serif" font-size="14.00">email :string</text>
<text text-anchor="start" x="239.5" y="-747.3" font-family="Times,serif" font-size="14.00">grade :integer</text>
<text text-anchor="start" x="239.5" y="-732.3" font-family="Times,serif" font-size="14.00">parent_phone :string</text>
<text text-anchor="start" x="239.5" y="-717.3" font-family="Times,serif" font-size="14.00">gpa :decimal</text>
<text text-anchor="start" x="239.5" y="-702.3" font-family="Times,serif" font-size="14.00">nick_name :string</text>
<text text-anchor="start" x="239.5" y="-687.3" font-family="Times,serif" font-size="14.00">created_at :datetime</text>
<text text-anchor="start" x="239.5" y="-672.3" font-family="Times,serif" font-size="14.00">updated_at :datetime</text>
</g>
<!-- StudentClassMap -->
<g id="node6" class="node"><title>StudentClassMap</title>
<path fill="none" stroke="black" d="M233.5,-317C233.5,-317 360.5,-317 360.5,-317 366.5,-317 372.5,-323 372.5,-329 372.5,-329 372.5,-441 372.5,-441 372.5,-447 366.5,-453 360.5,-453 360.5,-453 233.5,-453 233.5,-453 227.5,-453 221.5,-447 221.5,-441 221.5,-441 221.5,-329 221.5,-329 221.5,-323 227.5,-317 233.5,-317"/>
<text text-anchor="middle" x="297" y="-437.8" font-family="Times,serif" font-size="14.00">StudentClassMap</text>
<polyline fill="none" stroke="black" points="221.5,-430 372.5,-430 "/>
<text text-anchor="start" x="229.5" y="-414.8" font-family="Times,serif" font-size="14.00">id :integer</text>
<text text-anchor="start" x="229.5" y="-399.8" font-family="Times,serif" font-size="14.00">student_id :integer</text>
<text text-anchor="start" x="229.5" y="-384.8" font-family="Times,serif" font-size="14.00">student_class_id :integer</text>
<text text-anchor="start" x="229.5" y="-369.8" font-family="Times,serif" font-size="14.00">grade :string</text>
<text text-anchor="start" x="229.5" y="-354.8" font-family="Times,serif" font-size="14.00">year :date</text>
<text text-anchor="start" x="229.5" y="-339.8" font-family="Times,serif" font-size="14.00">created_at :datetime</text>
<text text-anchor="start" x="229.5" y="-324.8" font-family="Times,serif" font-size="14.00">updated_at :datetime</text>
</g>
<!-- Student&#45;&gt;StudentClassMap -->
<g id="edge2" class="edge"><title>Student&#45;&gt;StudentClassMap</title>
<path fill="none" stroke="#880ff5" d="M297,-656.318C297,-595.915 297,-519.465 297,-463.292"/>
<ellipse fill="none" stroke="#880ff5" cx="297" cy="-660.448" rx="4" ry="4"/>
<polygon fill="#880ff5" stroke="#880ff5" points="297,-463.048 301.5,-453.048 297,-458.048 297,-453.048 297,-453.048 297,-453.048 297,-458.048 292.5,-453.048 297,-463.048 297,-463.048"/>
</g>
<!-- StudentClass -->
<g id="node8" class="node"><title>StudentClass</title>
<path fill="none" stroke="black" d="M363.5,-491C363.5,-491 476.5,-491 476.5,-491 482.5,-491 488.5,-497 488.5,-503 488.5,-503 488.5,-615 488.5,-615 488.5,-621 482.5,-627 476.5,-627 476.5,-627 363.5,-627 363.5,-627 357.5,-627 351.5,-621 351.5,-615 351.5,-615 351.5,-503 351.5,-503 351.5,-497 357.5,-491 363.5,-491"/>
<text text-anchor="middle" x="420" y="-611.8" font-family="Times,serif" font-size="14.00">StudentClass</text>
<polyline fill="none" stroke="black" points="351.5,-604 488.5,-604 "/>
<text text-anchor="start" x="359.5" y="-588.8" font-family="Times,serif" font-size="14.00">id :integer</text>
<text text-anchor="start" x="359.5" y="-573.8" font-family="Times,serif" font-size="14.00">instructor_id :integer</text>
<text text-anchor="start" x="359.5" y="-558.8" font-family="Times,serif" font-size="14.00">name :string</text>
<text text-anchor="start" x="359.5" y="-543.8" font-family="Times,serif" font-size="14.00">grade :integer</text>
<text text-anchor="start" x="359.5" y="-528.8" font-family="Times,serif" font-size="14.00">max_students :integer</text>
<text text-anchor="start" x="359.5" y="-513.8" font-family="Times,serif" font-size="14.00">created_at :datetime</text>
<text text-anchor="start" x="359.5" y="-498.8" font-family="Times,serif" font-size="14.00">updated_at :datetime</text>
</g>
<!-- Student&#45;&gt;StudentClass -->
<g id="edge3" class="edge"><title>Student&#45;&gt;StudentClass</title>
<path fill="none" stroke="#4671aa" d="M359.22,-655.864C363.448,-649.196 367.671,-642.535 371.81,-636.006"/>
<polygon fill="#4671aa" stroke="#4671aa" points="359.174,-655.937 350.019,-661.973 356.497,-660.16 353.819,-664.382 353.819,-664.382 353.819,-664.382 356.497,-660.16 357.62,-666.792 359.174,-655.937 359.174,-655.937"/>
<polygon fill="#4671aa" stroke="#4671aa" points="372.04,-635.645 381.195,-629.609 374.717,-631.422 377.394,-627.199 377.394,-627.199 377.394,-627.199 374.717,-631.422 373.594,-624.789 372.04,-635.645 372.04,-635.645"/>
</g>
<!-- MutipleChoiseAnswer -->
<g id="node4" class="node"><title>MutipleChoiseAnswer</title>
<path fill="none" stroke="black" d="M403,-0.5C403,-0.5 529,-0.5 529,-0.5 535,-0.5 541,-6.5 541,-12.5 541,-12.5 541,-109.5 541,-109.5 541,-115.5 535,-121.5 529,-121.5 529,-121.5 403,-121.5 403,-121.5 397,-121.5 391,-115.5 391,-109.5 391,-109.5 391,-12.5 391,-12.5 391,-6.5 397,-0.5 403,-0.5"/>
<text text-anchor="middle" x="466" y="-106.3" font-family="Times,serif" font-size="14.00">MutipleChoiseAnswer</text>
<polyline fill="none" stroke="black" points="391,-98.5 541,-98.5 "/>
<text text-anchor="start" x="399" y="-83.3" font-family="Times,serif" font-size="14.00">id :integer</text>
<text text-anchor="start" x="399" y="-68.3" font-family="Times,serif" font-size="14.00">test_question_id :integer</text>
<text text-anchor="start" x="399" y="-53.3" font-family="Times,serif" font-size="14.00">answer :text</text>
<text text-anchor="start" x="399" y="-38.3" font-family="Times,serif" font-size="14.00">position :string</text>
<text text-anchor="start" x="399" y="-23.3" font-family="Times,serif" font-size="14.00">created_at :datetime</text>
<text text-anchor="start" x="399" y="-8.3" font-family="Times,serif" font-size="14.00">updated_at :datetime</text>
</g>
<!-- TestQuestion&#45;&gt;MutipleChoiseAnswer -->
<g id="edge4" class="edge"><title>TestQuestion&#45;&gt;MutipleChoiseAnswer</title>
<path fill="none" stroke="#3bb338" d="M466,-149.936C466,-143.914 466,-137.812 466,-131.776"/>
<ellipse fill="none" stroke="#3bb338" cx="466" cy="-154.132" rx="4" ry="4"/>
<polygon fill="#3bb338" stroke="#3bb338" points="466,-131.707 470.5,-121.707 466,-126.707 466,-121.707 466,-121.707 466,-121.707 466,-126.707 461.5,-121.707 466,-131.707 466,-131.707"/>
</g>
<!-- Instructor -->
<g id="node7" class="node"><title>Instructor</title>
<path fill="none" stroke="black" d="M392.5,-702C392.5,-702 499.5,-702 499.5,-702 505.5,-702 511.5,-708 511.5,-714 511.5,-714 511.5,-796 511.5,-796 511.5,-802 505.5,-808 499.5,-808 499.5,-808 392.5,-808 392.5,-808 386.5,-808 380.5,-802 380.5,-796 380.5,-796 380.5,-714 380.5,-714 380.5,-708 386.5,-702 392.5,-702"/>
<text text-anchor="middle" x="446" y="-792.8" font-family="Times,serif" font-size="14.00">Instructor</text>
<polyline fill="none" stroke="black" points="380.5,-785 511.5,-785 "/>
<text text-anchor="start" x="388.5" y="-769.8" font-family="Times,serif" font-size="14.00">id :integer</text>
<text text-anchor="start" x="388.5" y="-754.8" font-family="Times,serif" font-size="14.00">name :string</text>
<text text-anchor="start" x="388.5" y="-739.8" font-family="Times,serif" font-size="14.00">room :string</text>
<text text-anchor="start" x="388.5" y="-724.8" font-family="Times,serif" font-size="14.00">created_at :datetime</text>
<text text-anchor="start" x="388.5" y="-709.8" font-family="Times,serif" font-size="14.00">updated_at :datetime</text>
</g>
<!-- Instructor&#45;&gt;StudentClass -->
<g id="edge5" class="edge"><title>Instructor&#45;&gt;StudentClass</title>
<path fill="none" stroke="#541bf5" d="M437.935,-693.822C435.541,-675.956 432.884,-656.134 430.365,-637.339"/>
<ellipse fill="none" stroke="#541bf5" cx="438.467" cy="-697.792" rx="4.00001" ry="4.00001"/>
<polygon fill="#541bf5" stroke="#541bf5" points="430.351,-637.234 433.483,-626.724 429.687,-632.278 429.023,-627.322 429.023,-627.322 429.023,-627.322 429.687,-632.278 424.562,-627.92 430.351,-637.234 430.351,-637.234"/>
</g>
<!-- StudentClass&#45;&gt;ClassTest -->
<g id="edge7" class="edge"><title>StudentClass&#45;&gt;ClassTest</title>
<path fill="none" stroke="#b4da31" d="M440.151,-482.652C441.883,-476.176 443.637,-469.618 445.373,-463.129"/>
<ellipse fill="none" stroke="#b4da31" cx="439.082" cy="-486.651" rx="4.00001" ry="4.00001"/>
<polygon fill="#b4da31" stroke="#b4da31" points="445.495,-462.669 452.426,-454.171 446.787,-457.839 448.079,-453.009 448.079,-453.009 448.079,-453.009 446.787,-457.839 443.732,-451.846 445.495,-462.669 445.495,-462.669"/>
</g>
<!-- StudentClass&#45;&gt;StudentClassMap -->
<g id="edge6" class="edge"><title>StudentClass&#45;&gt;StudentClassMap</title>
<path fill="none" stroke="#65daf0" d="M366.955,-483.823C361.691,-476.462 356.342,-468.982 351.067,-461.606"/>
<ellipse fill="none" stroke="#65daf0" cx="369.413" cy="-487.261" rx="4.00002" ry="4.00002"/>
<polygon fill="#65daf0" stroke="#65daf0" points="350.736,-461.143 348.579,-450.391 347.827,-457.076 344.919,-453.009 344.919,-453.009 344.919,-453.009 347.827,-457.076 341.259,-455.626 350.736,-461.143 350.736,-461.143"/>
</g>
</g>
</svg>
